<?xml version="1.0" encoding="utf-8"?>
<!-- Generator: Adobe Illustrator 16.0.0, SVG Export Plug-In . SVG Version: 6.00 Build 0)  -->
<!DOCTYPE svg PUBLIC "-//W3C//DTD SVG 1.1//EN" "http://www.w3.org/Graphics/SVG/1.1/DTD/svg11.dtd">
<svg version="1.1" id="Layer_1" xmlns="http://www.w3.org/2000/svg" xmlns:xlink="http://www.w3.org/1999/xlink" x="0px" y="0px"
	 width="281.95px" height="49.09px" viewBox="0 0 281.95 49.09" enable-background="new 0 0 281.95 49.09" xml:space="preserve">
<g>
	<path fill="#FFFFFF" d="M20.1,20.517v-0.334c0-1.919-0.274-3.717-2.499-3.717c-1.433,0-2.347,0.579-2.347,2.133
		c0,1.736,1.098,2.406,2.438,3.259c1.402,0.883,3.991,2.59,5.181,3.75c1.462,1.431,1.919,2.802,1.919,4.784
		c0,4.326-2.864,6.58-7.039,6.58c-5.12,0-6.947-2.86-6.947-6.945v-1.677h4.266v1.736c0,2.011,0.701,3.444,2.681,3.444
		c1.797,0,2.65-0.944,2.65-2.684c0-1.338-0.609-2.251-1.706-3.012c-2.224-1.736-4.997-2.988-6.733-5.273
		c-0.701-1.036-1.097-2.285-1.097-3.503c0-3.9,2.194-6.033,6.703-6.033c6.794,0,6.611,5.241,6.642,7.496H20.1V20.517z"/>
	<path fill="#FFFFFF" d="M26.527,36.424l5.454-22.853h5.759l5.18,22.853h-4.571l-1.128-5.79h-4.997l-1.126,5.79H26.527z
		 M32.896,27.282h3.657l-1.157-6.49c-0.213-1.066-0.306-2.102-0.427-3.168c-0.03-0.519-0.092-1.036-0.151-1.524h-0.062
		c-0.062,0.488-0.122,1.006-0.151,1.524c-0.123,1.066-0.213,2.102-0.428,3.168L32.896,27.282z"/>
	<path fill="#FFFFFF" d="M49.47,26.581v9.843h-4.266V13.57h8.074c3.686,0,6.49,1.278,6.49,5.484c0,2.5-0.64,5.12-3.503,5.515v0.063
		c2.529,0.334,3.291,1.947,3.291,4.142v0.976c0,1.917,0.062,5.695,0.914,6.25v0.425h-4.691c-0.427-1.189-0.458-3.263-0.458-4.784
		v-1.009c-0.031-1.399,0-3.321-1.462-3.749c-0.976-0.271-2.012-0.305-3.048-0.305h-0.58L49.47,26.581L49.47,26.581z M49.47,23.23
		h3.351c1.401-0.091,2.499-1.006,2.499-3.291c0-2.559-1.066-2.986-2.682-3.016H49.47V23.23z"/>
	<path fill="#FFFFFF" d="M62.082,36.424l5.454-22.853h5.758l5.18,22.853h-4.57l-1.127-5.79H67.78l-1.128,5.79H62.082z
		 M68.449,27.282h3.656l-1.157-6.49c-0.214-1.066-0.306-2.102-0.427-3.168c-0.03-0.519-0.093-1.036-0.153-1.524h-0.061
		c-0.062,0.488-0.121,1.006-0.153,1.524c-0.121,1.066-0.213,2.102-0.426,3.168L68.449,27.282z"/>
	<path fill="#FFFFFF" d="M77.589,13.571h14.228v3.352h-4.966v19.5h-4.267v-19.5h-4.997v-3.352H77.589z"/>
	<path fill="#FFFFFF" d="M94.376,36.424V13.571h4.266v9.049h5.973v-9.049h4.264v22.853h-4.264v-10.45h-5.973v10.45H94.376z"/>
	<path fill="#FFFFFF" d="M120.608,36.424V13.571h4.264v10.146h0.062c0.674-1.797,1.77-3.809,2.681-5.485l2.5-4.661h4.815
		l-5.638,9.81l5.914,13.042h-4.815l-4.022-9.02l-1.494,2.469v6.551H120.608z"/>
	<path fill="#FFFFFF" d="M147.786,13.571h4.263v15.937c0,5.059-1.644,7.463-7.219,7.463c-5.638,0-7.284-2.404-7.284-7.463V13.571
		h4.266v15.569c0,2.196,0.153,4.388,3.046,4.388c2.773,0,2.928-2.193,2.928-4.388V13.571z"/>
	<path fill="#FFFFFF" d="M160.367,26.581v9.843h-4.268V13.57h8.076c3.686,0,6.487,1.278,6.487,5.484c0,2.5-0.637,5.12-3.503,5.515
		v0.063c2.526,0.334,3.289,1.947,3.289,4.142v0.976c0,1.917,0.062,5.695,0.913,6.25v0.425h-4.691
		c-0.426-1.189-0.458-3.263-0.458-4.784v-1.009c-0.028-1.399,0-3.321-1.462-3.749c-0.972-0.271-2.008-0.305-3.044-0.305h-0.581
		L160.367,26.581L160.367,26.581z M160.367,23.23h3.354c1.397-0.091,2.497-1.006,2.497-3.291c0-2.559-1.066-2.986-2.682-3.016
		h-3.169V23.23L160.367,23.23z"/>
	<path fill="#FFFFFF" d="M185.014,13.571h4.266v15.937c0,5.059-1.646,7.463-7.222,7.463c-5.636,0-7.281-2.404-7.281-7.463V13.571
		h4.267v15.569c0,2.196,0.152,4.388,3.046,4.388c2.771,0,2.925-2.193,2.925-4.388V13.571z"/>
	<path fill="#FFFFFF" d="M193.391,36.424V13.571h8.713c4.082,0,5.333,3.291,5.333,6.489c0,1.95-0.519,4.145-2.134,5.426
		c-1.279,1.035-2.985,1.369-4.57,1.369h-3.076v9.568H193.391z M197.657,23.504h2.286c1.857,0,3.106-0.792,3.106-3.565
		c0-2.621-1.035-3.016-3.443-3.016h-1.949V23.504L197.657,23.504z"/>
	<path fill="#FFFFFF" d="M210.332,36.424V13.571h8.713c4.082,0,5.331,3.291,5.331,6.489c0,1.95-0.518,4.145-2.134,5.426
		c-1.279,1.035-2.988,1.369-4.569,1.369h-3.077v9.568H210.332z M214.596,23.504h2.286c1.86,0,3.107-0.792,3.107-3.565
		c0-2.621-1.037-3.016-3.444-3.016h-1.949V23.504z"/>
	<path fill="#FFFFFF" d="M224.345,36.424l5.452-22.853h5.76l5.18,22.853h-4.57l-1.129-5.79h-4.996l-1.125,5.79H224.345z
		 M230.713,27.282h3.656l-1.157-6.49c-0.213-1.066-0.305-2.102-0.427-3.168c-0.029-0.519-0.091-1.036-0.153-1.524h-0.061
		c-0.061,0.488-0.12,1.006-0.151,1.524c-0.122,1.066-0.214,2.102-0.429,3.168L230.713,27.282z"/>
	<path fill="#FFFFFF" d="M239.853,13.571h14.228v3.352h-4.964v19.5h-4.268v-19.5h-4.997L239.853,13.571L239.853,13.571z"/>
	<path fill="#FFFFFF" d="M256.639,36.424V13.571h4.267v9.049h5.974v-9.049h4.263v22.853h-4.263v-10.45h-5.974v10.45H256.639z"/>
</g>
<g>
	<path fill="#FFFFFF" d="M274.179,6.731h7.17v36.703h-7.17v-2.879h3.511V9.611h-3.511V6.731z"/>
</g>
<g>
	<path fill="#FFFFFF" d="M7.966,9.611H4.456v30.945h3.511v2.879h-7.17V6.731h7.17V9.611z"/>
</g>
</svg>
